<?xml version="1.0" encoding="UTF-8"?>
<svg version="1.1" xmlns="http://www.w3.org/2000/svg" width="626" height="626">
<path d="M0 0 C206.58 0 413.16 0 626 0 C626 206.58 626 413.16 626 626 C419.42 626 212.84 626 0 626 C0 419.42 0 212.84 0 0 Z " fill="#FEFEFE" transform="translate(0,0)"/>
<path d="M0 0 C0.94875 0.18175781 1.8975 0.36351562 2.875 0.55078125 C12.74763927 2.71042109 21.67061696 8.44707798 30 14 C30 14.66 30 15.32 30 16 C30.721875 16.268125 31.44375 16.53625 32.1875 16.8125 C34.99766383 17.99901362 37.48416557 19.27485639 40 21 C40 21.66 40 22.32 40 23 C40.81210937 23.32484375 40.81210937 23.32484375 41.640625 23.65625 C44.81645344 25.46499997 47.20728081 27.91723799 49.75 30.5 C50.25660156 30.99886719 50.76320313 31.49773437 51.28515625 32.01171875 C55 35.74658861 55 35.74658861 55 38 C55.556875 38.20625 56.11375 38.4125 56.6875 38.625 C59.30429976 40.18093499 60.89026709 42.10103563 62.76171875 44.4765625 C64.10466518 46.18911095 64.10466518 46.18911095 66.3125 48.25 C68 50 68 50 68 52 C68.66 52 69.32 52 70 52 C71.14160156 53.38598633 71.14160156 53.38598633 72.390625 55.33203125 C72.84993408 56.04262695 73.30924316 56.75322266 73.7824707 57.48535156 C74.26675537 58.25331055 74.75104004 59.02126953 75.25 59.8125 C75.74653076 60.59206055 76.24306152 61.37162109 76.75463867 62.17480469 C99.24516694 97.76793405 111.48003632 139.60674372 102.68676758 181.64379883 C101.59567977 186.36910757 100.02970271 190.59777617 98 195 C96.25198989 198.860189 94.80171133 202.60857431 93.6875 206.6875 C91.92310945 212.84389498 88.99314231 218.36243099 86 224 C85.34 224 84.68 224 84 224 C83.67 225.65 83.34 227.3 83 229 C82.01 229.33 81.02 229.66 80 230 C79.87625 230.804375 79.7525 231.60875 79.625 232.4375 C79.315625 233.7059375 79.315625 233.7059375 79 235 C78.34 235.33 77.68 235.66 77 236 C75.98739825 237.99364934 74.98949521 239.994782 74 242 C72.72846639 243.88249637 71.41510899 245.73738653 70.0625 247.5625 C69.39347656 248.47128906 68.72445313 249.38007813 68.03515625 250.31640625 C67.36355469 251.20199219 66.69195312 252.08757812 66 253 C65.29746094 253.93714844 64.59492188 254.87429688 63.87109375 255.83984375 C63.25363281 256.55269531 62.63617188 257.26554687 62 258 C61.34 258 60.68 258 60 258 C60 258.66 60 259.32 60 260 C59.34 260 58.68 260 58 260 C57.9175 260.556875 57.835 261.11375 57.75 261.6875 C56.76104459 264.73677919 55.15242534 266.65189963 53 269 C52.34 269 51.68 269 51 269 C50.6596875 269.7734375 50.6596875 269.7734375 50.3125 270.5625 C48.51782382 273.89547005 46.50034985 277.14703671 44 280 C43.34 280 42.68 280 42 280 C42 280.66 42 281.32 42 282 C41.34 282 40.68 282 40 282 C39.34 283.98 38.68 285.96 38 288 C37.34 288 36.68 288 36 288 C35.6596875 289.175625 35.6596875 289.175625 35.3125 290.375 C34.21484554 293.40661708 32.98766044 296.03133048 31.5 298.875 C29.26708002 303.22227784 27.97360199 307.22049932 27 312 C26.67 312 26.34 312 26 312 C26.54215042 297.74144393 32.8928119 286.10854269 40 274 C40.66 274 41.32 274 42 274 C42.66 272.02 43.32 270.04 44 268 C44.66 268 45.32 268 46 268 C46.28875 267.4225 46.5775 266.845 46.875 266.25 C47.91666667 264.16666667 48.95833333 262.08333333 50 260 C50.66 260 51.32 260 52 260 C52.40412109 258.90751953 52.40412109 258.90751953 52.81640625 257.79296875 C53.97295594 255.06381684 55.29495912 252.77422158 56.9375 250.3125 C57.44152344 249.54550781 57.94554687 248.77851563 58.46484375 247.98828125 C60 246 60 246 63 244 C63.72382467 241.94074861 63.72382467 241.94074861 64 240 C64.66 240 65.32 240 66 240 C66.25910156 239.319375 66.51820313 238.63875 66.78515625 237.9375 C68.18756665 234.54646262 69.78912342 231.27575474 71.4375 228 C71.73720703 227.39671875 72.03691406 226.7934375 72.34570312 226.171875 C73.63031107 223.60823224 74.9288576 221.11104237 76.4765625 218.6953125 C78.78414707 214.61266288 80.30704981 210.26402067 81.9375 205.875 C82.29086426 204.93011719 82.64422852 203.98523438 83.00830078 203.01171875 C83.70142451 201.15656526 84.39289334 199.30079242 85.08251953 197.44433594 C85.8128119 195.49870337 86.57150597 193.56373717 87.33984375 191.6328125 C91.94359554 179.92364758 92.32323381 167.89335116 92.25 155.4375 C92.25773437 154.11814453 92.26546875 152.79878906 92.2734375 151.43945312 C92.25756442 143.42751647 91.61623174 135.85013695 90 128 C89.97083496 128.99515625 89.94166992 129.9903125 89.91162109 131.015625 C89.18256378 154.14727902 88.1347972 176.26045932 78.13061523 197.55859375 C76.89759229 200.22113519 75.87561258 202.90806877 74.9375 205.6875 C72.85418725 211.56093596 70.42236204 216.88800787 66.9375 222.0625 C64.80243436 225.299535 63.43686158 228.40784606 62 232 C61.34 232 60.68 232 60 232 C59.64228516 233.00546875 59.64228516 233.00546875 59.27734375 234.03125 C57.68333409 237.73598193 55.666807 241.06647808 53.5625 244.5 C53.16740234 245.15097656 52.77230469 245.80195313 52.36523438 246.47265625 C51.59399411 247.7430853 50.82054046 249.0121738 50.04467773 250.27978516 C49.16045991 251.73577927 48.30015971 253.20625739 47.4453125 254.6796875 C45.89609164 257.16681504 44.17599181 259.36461846 42.3125 261.625 C38.54136803 266.25352426 35.07163037 271.0443882 31.6640625 275.9453125 C30.84035156 276.96238281 30.84035156 276.96238281 30 278 C29.34 278 28.68 278 28 278 C27.9175 278.556875 27.835 279.11375 27.75 279.6875 C27 282 27 282 25.15234375 284.125 C22.49660753 287.67240809 21.22308809 291.14668529 19.8125 295.3125 C19.55275391 296.03373047 19.29300781 296.75496094 19.02539062 297.49804688 C14.85092006 309.52526828 13.54939935 324.42276154 18.9296875 336.1796875 C19.99007388 338.15750304 19.99007388 338.15750304 22 340 C22 341.32 22 342.64 22 344 C22.73951904 344.10272217 23.47903809 344.20544434 24.2409668 344.3112793 C27.25343304 345.06326295 28.73141195 346.10896667 31.14453125 348.01953125 C36.31045713 351.58772607 40.52837959 351.89811438 46.6875 351.6875 C47.65212158 351.66896973 48.61674316 351.65043945 49.6105957 351.63134766 C57.86729862 351.31524217 64.5274199 349.63090751 72 346 C73.00546875 345.54238281 74.0109375 345.08476562 75.046875 344.61328125 C80.74694617 341.80175966 84.44373163 338.75510292 88.3984375 333.81640625 C90.41230651 331.53238408 92.43382583 330.2789226 95.140625 328.9375 C97.06459771 328.01293884 97.06459771 328.01293884 98.984375 326.6875 C105.42040329 322.55340884 111.45259614 322.12831753 119 322 C119 322.66 119 323.32 119 324 C119.64066406 323.97679687 120.28132813 323.95359375 120.94140625 323.9296875 C126.40987096 323.81559137 130.83098277 324.20208096 136 326 C136 326.66 136 327.32 136 328 C137.5159375 327.938125 137.5159375 327.938125 139.0625 327.875 C143.14235911 328.00451934 146.10995511 328.78834667 150 330 C161.7991791 333.61019659 173.04920395 334.31685229 185 331 C186.66534667 330.66013333 188.33129513 330.32297514 190 330 C190 329.34 190 328.68 190 328 C191.6796875 326.7109375 191.6796875 326.7109375 193.875 325.375 C194.59429687 324.92898438 195.31359375 324.48296875 196.0546875 324.0234375 C198 323 198 323 200 323 C200 323.66 200 324.32 200 325 C192.02310693 332.97689307 181.75197428 337.08237941 170.61572266 337.18994141 C169.83503418 337.18913574 169.0543457 337.18833008 168.25 337.1875 C167.44739746 337.18669434 166.64479492 337.18588867 165.81787109 337.18505859 C159.67644606 337.12143627 153.74462772 336.88804759 148.140625 334.0625 C139.22603868 329.63774182 130.29933349 328.60955757 120.5 328.5625 C119.08485107 328.54775635 119.08485107 328.54775635 117.64111328 328.53271484 C112.24189545 328.59922904 108.77862801 329.2868332 104 332 C102.68 332 101.36 332 100 332 C100 332.66 100 333.32 100 334 C95.37359797 337.74824239 90.13563203 340.50958909 84.78515625 343.0625 C82.25148078 344.39309543 80.165909 346.14350657 78 348 C75 350 75 350 72 350 C72 350.66 72 351.32 72 352 C71.34 352 70.68 352 70 352 C70 352.66 70 353.32 70 354 C68.02 354.66 66.04 355.32 64 356 C64 356.66 64 357.32 64 358 C63.34 358 62.68 358 62 358 C62 358.66 62 359.32 62 360 C60.70990357 360.50403768 59.41786211 361.00309926 58.125 361.5 C57.04605469 361.91765625 57.04605469 361.91765625 55.9453125 362.34375 C54 363 54 363 52 363 C52 363.66 52 364.32 52 365 C50.02 365.33 48.04 365.66 46 366 C46 366.66 46 367.32 46 368 C42.49223216 369.60355101 39.85645121 370.22036864 36 370 C36 370.66 36 371.32 36 372 C31.47180427 373.50939858 26.992986 373.18442014 22.25 373.1875 C21.27289063 373.19974609 20.29578125 373.21199219 19.2890625 373.22460938 C13.75849991 373.23578976 9.22744406 372.80279801 4 371 C0.91051842 370.08739109 -1.90321269 369.85236889 -5.12109375 369.7890625 C-6.12889893 369.76287842 -7.1367041 369.73669434 -8.17504883 369.7097168 C-9.25165771 369.68176025 -10.3282666 369.65380371 -11.4375 369.625 C-34.04228994 368.85931951 -57.48312214 366.40201612 -76 352 C-76 351.34 -76 350.68 -76 350 C-76.8353125 349.6596875 -76.8353125 349.6596875 -77.6875 349.3125 C-80.65855185 347.62622733 -82.64522125 345.469646 -85 343 C-85.928125 342.113125 -86.85625 341.22625 -87.8125 340.3125 C-90 338 -90 338 -90 336 C-90.66 336 -91.32 336 -92 336 C-92 335.34 -92 334.68 -92 334 C-92.66 334 -93.32 334 -94 334 C-95.23681641 332.56298828 -95.23681641 332.56298828 -96.6015625 330.5703125 C-97.09140625 329.85746094 -97.58125 329.14460938 -98.0859375 328.41015625 C-98.84777344 327.27900391 -98.84777344 327.27900391 -99.625 326.125 C-100.140625 325.37863281 -100.65625 324.63226563 -101.1875 323.86328125 C-105 318.265563 -105 318.265563 -105 316 C-105.66 316 -106.32 316 -107 316 C-112.30537901 307.72633821 -115.62431189 298.97700642 -118.75 289.6875 C-119.31448853 288.03560669 -119.31448853 288.03560669 -119.89038086 286.3503418 C-124.38880571 272.6221651 -126.51864172 259.48657495 -126.39111328 245.09057617 C-126.3749745 242.93409304 -126.39110955 240.77947549 -126.41015625 238.62304688 C-126.45004806 212.49706616 -117.27526481 184.81803126 -100.859375 164.328125 C-98.9895074 162.15295497 -98.9895074 162.15295497 -98 160 C-97.34 160 -96.68 160 -96 160 C-95.73574219 159.4112207 -95.47148437 158.82244141 -95.19921875 158.21582031 C-93.95631056 155.91927416 -92.64993519 154.39166834 -90.8125 152.546875 C-89.88824219 151.61875 -89.88824219 151.61875 -88.9453125 150.671875 C-88.30335938 150.03765625 -87.66140625 149.4034375 -87 148.75 C-86.03707031 147.77546875 -86.03707031 147.77546875 -85.0546875 146.78125 C-84.13042969 145.86085938 -84.13042969 145.86085938 -83.1875 144.921875 C-82.62417969 144.36081055 -82.06085938 143.79974609 -81.48046875 143.22167969 C-80 142 -80 142 -78 142 C-78 141.34 -78 140.68 -78 140 C-75.2146762 137.69966555 -72.0973357 135.82905219 -69.0625 133.875 C-68.15024658 133.28750977 -67.23799316 132.70001953 -66.2980957 132.09472656 C-51.93813607 123.0137045 -36.49331295 117.08586431 -20.67382812 111.03076172 C13.2617801 97.96197379 13.2617801 97.96197379 40 74 C39.33355469 74.64066406 38.66710937 75.28132813 37.98046875 75.94140625 C18.54298421 94.1827379 -6.72806068 103.17074455 -31.375 112.2421875 C-50.12347963 119.27286736 -70.64917485 127.98390792 -84.66796875 142.7578125 C-86 144 -86 144 -88 144 C-88 144.66 -88 145.32 -88 146 C-88.66 146 -89.32 146 -90 146 C-90 146.66 -90 147.32 -90 148 C-91.11205251 149.14680415 -92.23161 150.28689269 -93.37890625 151.3984375 C-99.74754624 157.69034688 -104.59767397 164.22977427 -109 172 C-109.99858159 173.60505 -110.99859309 175.20921122 -112 176.8125 C-118.42525412 187.59954543 -122.74971261 198.92834975 -126 211 C-126.32226562 212.17304688 -126.64453125 213.34609375 -126.9765625 214.5546875 C-132.35453464 237.92624867 -130.89231019 266.36032218 -121.69824219 288.58544922 C-120.94034308 291.20629612 -121.07985217 292.47069411 -122 295 C-122.79664063 294.39671875 -123.59328125 293.7934375 -124.4140625 293.171875 C-125.48430911 292.36449598 -126.55462535 291.55720925 -127.625 290.75 C-128.66914063 289.96109375 -129.71328125 289.1721875 -130.7890625 288.359375 C-132.9753146 286.75293185 -135.11661538 285.27421803 -137.3984375 283.828125 C-138.68621094 282.92320312 -138.68621094 282.92320312 -140 282 C-140 281.34 -140 280.68 -140 280 C-140.66 280 -141.32 280 -142 280 C-144.125 278.125 -144.125 278.125 -146 276 C-146 275.34 -146 274.68 -146 274 C-146.66 274 -147.32 274 -148 274 C-148 273.34 -148 272.68 -148 272 C-148.66 272 -149.32 272 -150 272 C-150 271.34 -150 270.68 -150 270 C-150.66 270 -151.32 270 -152 270 C-152 269.34 -152 268.68 -152 268 C-152.66 268 -153.32 268 -154 268 C-154 267.01 -154 266.02 -154 265 C-154.61875 264.95875 -155.2375 264.9175 -155.875 264.875 C-156.57625 264.58625 -157.2775 264.2975 -158 264 C-159.25 260.9375 -159.25 260.9375 -160 258 C-160.66 258 -161.32 258 -162 258 C-163.5078125 256.3203125 -163.5078125 256.3203125 -165.125 254.125 C-165.66382813 253.40570313 -166.20265625 252.68640625 -166.7578125 251.9453125 C-168 250 -168 250 -168 248 C-168.66 248 -169.32 248 -170 248 C-170.67154933 246.71086513 -171.33708859 245.41859796 -172 244.125 C-172.37125 243.40570313 -172.7425 242.68640625 -173.125 241.9453125 C-174 240 -174 240 -174 238 C-174.66 238 -175.32 238 -176 238 C-176.391875 237.01 -176.78375 236.02 -177.1875 235 C-178.4007279 232.14805194 -179.81800564 229.60175562 -181.5 227 C-183.77227143 223.45932631 -185.44465879 219.9221648 -187 216 C-187.46019531 214.92685547 -187.46019531 214.92685547 -187.9296875 213.83203125 C-190.92055785 206.72581603 -193.00417073 199.43900002 -195 192 C-195.29132813 190.94039062 -195.58265625 189.88078125 -195.8828125 188.7890625 C-196.14835937 187.78617188 -196.41390625 186.78328125 -196.6875 185.75 C-197.03361328 184.44289063 -197.03361328 184.44289063 -197.38671875 183.109375 C-202.90071084 155.15308388 -200.76294666 122.55861883 -188 97 C-187.53851563 96.00355469 -187.07703125 95.00710937 -186.6015625 93.98046875 C-178.84425057 77.63011238 -168.11300392 62.44186593 -155 50 C-154.175 49.154375 -153.35 48.30875 -152.5 47.4375 C-126.98263894 22.55807296 -94.70418239 7.58213168 -59.5 3 C-54.49624255 2.32760258 -50.61184564 1.08838293 -46 -1 C-31.09582245 -5.33044731 -14.8527952 -3.4689094 0 0 Z " fill="#F2C3BD" transform="translate(314,128)"/>
<path d="M0 0 C1.07736779 3.26925398 0.91176157 5.22051843 -0.0625 8.5 C-0.3409375 9.46292969 -0.619375 10.42585937 -0.90625 11.41796875 C-1.74806649 14.17491777 -2.60416337 16.92597672 -3.46875 19.67578125 C-6.50386261 29.40276865 -9.18549257 38.788265 -10 49 C-10.11730469 50.1240625 -10.23460937 51.248125 -10.35546875 52.40625 C-10.96915687 62.68842072 -7.56136187 70.07786753 -3 79 C-1.88102955 81.20662735 -0.76218593 83.41329973 0.35351562 85.62158203 C1.06117284 87.01107654 1.77949224 88.39520667 2.50976562 89.77294922 C4.29095972 93.20218873 5 95.0442415 5 99 C4.28714844 99.19335938 3.57429688 99.38671875 2.83984375 99.5859375 C-2.45013328 101.02412775 -7.73336033 102.47852632 -13 104 C-13.36131762 110.02196037 -12.83596157 113.57468221 -10 119 C-10.3125 121.875 -10.3125 121.875 -11 124 C-12.32 124.33 -13.64 124.66 -15 125 C-15 125.66 -15 126.32 -15 127 C-19.29 127 -23.58 127 -28 127 C-28 127.66 -28 128.32 -28 129 C-25.03 129.99 -22.06 130.98 -19 132 C-19 133.98 -19 135.96 -19 138 C-20.98 138.33 -22.96 138.66 -25 139 C-25.103125 139.556875 -25.20625 140.11375 -25.3125 140.6875 C-26.13201007 143.44403386 -27.49696117 145.5575619 -29 148 C-30.48682539 152.46047617 -30.31931693 157.08091312 -30.4296875 161.75195312 C-30.56641149 165.02478372 -30.77078778 167.49589066 -32.13671875 170.5 C-36.10418699 173.6939367 -41.84045345 172.66255106 -46.68603516 172.27929688 C-58.87360971 170.80824968 -70.74038676 166.74413253 -82 162 C-83.93641278 161.22643951 -85.87383383 160.45539567 -87.8125 159.6875 C-89.20870058 159.12591217 -90.60468879 158.56379392 -92 158 C-87.1083961 160.95534402 -82.39371278 163.1074692 -77 165 C-78.51972317 169.6858131 -80.19648237 174.30545226 -81.90234375 178.92578125 C-82.26457031 179.94027344 -82.62679687 180.95476562 -83 182 C-83.2580542 182.62028076 -83.5161084 183.24056152 -83.78198242 183.87963867 C-86.44100107 190.75886922 -86.49960335 197.37544199 -86.4375 204.6875 C-86.42920166 205.93539307 -86.42090332 207.18328613 -86.41235352 208.46899414 C-86.15482999 222.4861557 -83.26061692 237.88481648 -72.78125 248.1796875 C-71 250 -71 250 -71 253 C-70.34 253 -69.68 253 -69 253 C-69 253.66 -69 254.32 -69 255 C-68.2265625 255.3403125 -68.2265625 255.3403125 -67.4375 255.6875 C-64.09033884 257.48981755 -60.96109508 259.61282504 -58 262 C-58 262.33 -58 262.66 -58 263 C-59.65 263 -61.3 263 -63 263 C-63 262.34 -63 261.68 -63 261 C-63.78375 260.7525 -64.5675 260.505 -65.375 260.25 C-66.57125 259.8375 -67.7675 259.425 -69 259 C-69.7734375 258.74347656 -70.546875 258.48695313 -71.34375 258.22265625 C-76.96494674 256.20145434 -80.86606559 253.75043409 -85.203125 249.65625 C-87.10296898 247.81864861 -87.10296898 247.81864861 -90 246 C-108.72605723 233.51596185 -117.99676306 212.21999855 -123 191 C-127.63545647 166.79418786 -124.53323272 134.70117663 -112.89257812 112.71142578 C-111.8004283 110.61734201 -110.98673436 108.47053291 -110.1875 106.25 C-107.81137874 100.17243089 -104.73563622 94.35502532 -101 89 C-100.34 89 -99.68 89 -99 89 C-98.896875 88.46375 -98.79375 87.9275 -98.6875 87.375 C-97.81907303 84.37497956 -96.44379704 81.7620465 -95 79 C-94.34 79 -93.68 79 -93 79 C-92.6596875 78.20335937 -92.6596875 78.20335937 -92.3125 77.390625 C-90.56630711 74.21005938 -88.31938714 71.52001093 -86 68.75 C-85.54882812 68.19570313 -85.09765625 67.64140625 -84.6328125 67.0703125 C-83.46926971 65.67268418 -82.23905262 64.33114437 -81 63 C-80.34 63 -79.68 63 -79 63 C-78.7525 62.4225 -78.505 61.845 -78.25 61.25 C-76.81700012 58.67060021 -75.21575324 56.93878408 -73 55 C-72.34 55 -71.68 55 -71 55 C-70.7525 54.4225 -70.505 53.845 -70.25 53.25 C-68.81700012 50.67060021 -67.21575324 48.93878408 -65 47 C-64.34 47 -63.68 47 -63 47 C-62.7525 46.41089844 -62.505 45.82179688 -62.25 45.21484375 C-59.72498709 40.74083649 -55.05772684 38.02941402 -51 35 C-49.92733887 34.19755859 -49.92733887 34.19755859 -48.83300781 33.37890625 C-46.4379166 31.59623579 -44.03346736 29.82705027 -41.625 28.0625 C-40.83996094 27.48250244 -40.05492187 26.90250488 -39.24609375 26.30493164 C-38.49714844 25.76215576 -37.74820313 25.21937988 -36.9765625 24.66015625 C-35.97230225 23.92744507 -35.97230225 23.92744507 -34.94775391 23.17993164 C-32.95454286 21.97246248 -31.27749031 21.43397397 -29 21 C-29 20.34 -29 19.68 -29 19 C-27.02 18.34 -25.04 17.68 -23 17 C-23 16.34 -23 15.68 -23 15 C-22.00033203 14.48953125 -22.00033203 14.48953125 -20.98046875 13.96875 C-13.67950453 10.12936182 -5.88626813 5.88626813 0 0 Z " fill="#FEFEFD" transform="translate(351,225)"/>
<path d="M0 0 C0 3.6887149 -1.21403497 4.62380112 -3.70751953 7.17529297 C-4.23716309 7.69494629 -4.76680664 8.21459961 -5.3125 8.75 C-5.85503418 9.28641113 -6.39756836 9.82282227 -6.95654297 10.37548828 C-11.85005559 15.08412539 -17.11373661 18.6239262 -23 22 C-24.16208984 22.74636719 -24.16208984 22.74636719 -25.34765625 23.5078125 C-37.48962263 31.25110325 -51.54055707 36.26070137 -64.99609375 41.2265625 C-82.31407557 47.64429276 -98.6167489 54.82034688 -113.75 65.50390625 C-116 67 -116 67 -119 68 C-119 68.66 -119 69.32 -119 70 C-120.43359375 71.41015625 -120.43359375 71.41015625 -122.4375 73.0625 C-130.73060884 79.68811486 -130.73060884 79.68811486 -137 88 C-137.66 88 -138.32 88 -139 88 C-139.2475 88.721875 -139.495 89.44375 -139.75 90.1875 C-141 93 -141 93 -142.8046875 95.2109375 C-159.01704186 115.80812791 -166.39325461 142.73844891 -166.31567383 168.55273438 C-166.31252371 170.73358722 -166.33603414 172.91306443 -166.36132812 175.09375 C-166.42301711 188.74181282 -164.1931165 201.41965289 -159.671875 214.328125 C-158.97412981 217.10287912 -158.91269543 218.38584221 -160 221 C-160.99 221.99 -160.99 221.99 -162 223 C-172.6523239 195.75799133 -174.99527601 164.20188004 -167 136 C-166.64536554 134.62902717 -166.29119316 133.25793472 -165.9375 131.88671875 C-163.1013566 121.46779586 -158.32983257 112.34273682 -153 103 C-152.20916016 101.56140625 -152.20916016 101.56140625 -151.40234375 100.09375 C-147.64202012 93.4739045 -142.91334377 87.79266913 -138 82 C-137.02002358 80.77147883 -136.04067608 79.54245513 -135.0625 78.3125 C-134.381875 77.549375 -133.70125 76.78625 -133 76 C-132.34 76 -131.68 76 -131 76 C-131 75.34 -131 74.68 -131 74 C-130.34 74 -129.68 74 -129 74 C-129 73.34 -129 72.68 -129 72 C-125.53260848 68.76332845 -121.74490041 65.90735199 -118 63 C-116.86691406 62.11054688 -116.86691406 62.11054688 -115.7109375 61.203125 C-104.09255356 52.58170936 -90.4354128 46.21779096 -77 41 C-75.40287824 40.35737316 -73.80659837 39.71265199 -72.2109375 39.06640625 C-57.63794736 33.17635865 -57.63794736 33.17635865 -51.5 31.0625 C-32.20129917 24.1613823 -14.41786759 14.81929314 0 0 Z " fill="#F9F7F4" transform="translate(355,200)"/>
<path d="M0 0 C0.825 0.28875 1.65 0.5775 2.5 0.875 C9.89748093 3.25276173 15.49059165 4.18325184 23.265625 3.6796875 C26.7772308 4.09104704 27.68134045 5.43571973 30 8 C33.14481791 8.80315654 33.14481791 8.80315654 36 9 C32.5749204 12.4250796 28.87338381 12.15742372 24.1875 12.1875 C19.38121623 12.15808578 15.50324249 11.63754272 11 10 C14.88507432 12.59004954 18.6617907 13.15050658 23.1875 14.12109375 C26.01159076 15.00362211 27.17791684 15.72872272 29 18 C26.58197805 17.71729594 24.1659878 17.42420736 21.75 17.125 C21.06808594 17.04636719 20.38617188 16.96773438 19.68359375 16.88671875 C16.09303689 16.43354167 13.107493 15.90614262 10 14 C10 13.34 10 12.68 10 12 C9.34 12 8.68 12 8 12 C8 11.34 8 10.68 8 10 C7.34 10 6.68 10 6 10 C6 9.34 6 8.68 6 8 C5.01 7.67 4.02 7.34 3 7 C1.3125 3.4375 1.3125 3.4375 0 0 Z " fill="#F7C5BE" transform="translate(296,272)"/>
<path d="M0 0 C0.33 0.99 0.66 1.98 1 3 C0.34 3.66 -0.32 4.32 -1 5 C-1 5.99 -1 6.98 -1 8 C-0.34 8 0.32 8 1 8 C-0.20381448 10.49361571 -1.45428722 12.68143083 -3 15 C-3.66 15 -4.32 15 -5 15 C-5 15.66 -5 16.32 -5 17 C-5.66 17 -6.32 17 -7 17 C-7.66 18.98 -8.32 20.96 -9 23 C-9.66 23 -10.32 23 -11 23 C-11.226875 23.78375 -11.45375 24.5675 -11.6875 25.375 C-12.78515446 28.40661708 -14.01233956 31.03133048 -15.5 33.875 C-17.73291998 38.22227784 -19.02639801 42.22049932 -20 47 C-20.33 47 -20.66 47 -21 47 C-20.45784958 32.74144393 -14.1071881 21.10854269 -7 9 C-6.34 9 -5.68 9 -5 9 C-4.34 7.02 -3.68 5.04 -3 3 C-2.34 3 -1.68 3 -1 3 C-0.67 2.01 -0.34 1.02 0 0 Z " fill="#F6D3CC" transform="translate(361,393)"/>
<path d="M0 0 C0 0.66 0 1.32 0 2 C-7.97647137 9.97647137 -18.24898058 14.08432632 -29.38525391 14.18945312 C-30.16562012 14.18880859 -30.94598633 14.18816406 -31.75 14.1875 C-32.54970215 14.18814453 -33.3494043 14.18878906 -34.17333984 14.18945312 C-39.7098808 14.13982839 -44.66724697 13.58007497 -50 12 C-50 10.68 -50 9.36 -50 8 C-49.29617188 8.144375 -48.59234375 8.28875 -47.8671875 8.4375 C-36.73782177 10.52970452 -25.97428707 11.04582967 -15 8 C-13.33465333 7.66013333 -11.66870487 7.32297514 -10 7 C-10 6.34 -10 5.68 -10 5 C-8.3203125 3.7109375 -8.3203125 3.7109375 -6.125 2.375 C-5.40570313 1.92898438 -4.68640625 1.48296875 -3.9453125 1.0234375 C-2 0 -2 0 0 0 Z " fill="#F2DEDB" transform="translate(514,451)"/>
<path d="M0 0 C0.33 0 0.66 0 1 0 C1.02687279 1.81242052 1.04633715 3.62495233 1.0625 5.4375 C1.07410156 6.44683594 1.08570312 7.45617187 1.09765625 8.49609375 C1 11 1 11 0 12 C-0.15971977 14.37338639 -0.2592433 16.72118272 -0.31640625 19.09765625 C-0.33718735 19.80651474 -0.35796844 20.51537323 -0.37937927 21.24571228 C-0.44494598 23.51787305 -0.5037923 25.79015264 -0.5625 28.0625 C-0.60567849 29.59962183 -0.64929255 31.1367315 -0.69335938 32.67382812 C-0.80063449 36.4490959 -0.90188137 40.2244836 -1 44 C-1.33 44 -1.66 44 -2 44 C-2.04974332 39.01954576 -2.08588098 34.03923879 -2.10986328 29.05859375 C-2.11986984 27.36716184 -2.13347931 25.67574701 -2.15087891 23.984375 C-2.17536403 21.54162358 -2.18653672 19.09910251 -2.1953125 16.65625 C-2.20563507 15.91008423 -2.21595764 15.16391846 -2.22659302 14.3951416 C-2.22766432 9.28804846 -1.40327286 4.91388283 0 0 Z " fill="#DEC2BE" transform="translate(117,254)"/>
<path d="M0 0 C0.66 0 1.32 0 2 0 C2 0.66 2 1.32 2 2 C2.515625 2.226875 3.03125 2.45375 3.5625 2.6875 C6.90966116 4.48981755 10.03890492 6.61282504 13 9 C13 9.33 13 9.66 13 10 C11.35 10 9.7 10 8 10 C8 9.34 8 8.68 8 8 C7.05125 7.690625 6.1025 7.38125 5.125 7.0625 C2 6 2 6 0 5 C0 3.35 0 1.7 0 0 Z " fill="#F8F4F3" transform="translate(280,478)"/>
<path d="M0 0 C7.18216433 2.27435204 14.0758202 5.03584181 21 8 C20.01 8.495 20.01 8.495 19 9 C18.67 9.66 18.34 10.32 18 11 C18 10.34 18 9.68 18 9 C17.45472656 8.84144531 16.90945313 8.68289063 16.34765625 8.51953125 C10.43878753 6.69131717 5.30135828 4.17078876 0 1 C0 0.67 0 0.34 0 0 Z " fill="#F4D2CD" transform="translate(256,381)"/>
<path d="M0 0 C0.66 0.33 1.32 0.66 2 1 C-2 5 -6 9 -10 13 C-10 10 -10 10 -7.8125 7.51953125 C-6.884375 6.62621094 -5.95625 5.73289063 -5 4.8125 C-4.071875 3.91144531 -3.14375 3.01039063 -2.1875 2.08203125 C-1.1046875 1.05142578 -1.1046875 1.05142578 0 0 Z " fill="#E2C4C1" transform="translate(159,178)"/>
</svg>
